<svg width="115" height="79" viewBox="0 0 115 79" fill="none" xmlns="http://www.w3.org/2000/svg">
<path d="M29.9526 77.3019L33.7528 24.5552L77.5326 54.2196L29.9526 77.3019Z" fill="#5003CD" stroke="black"/>
<path d="M10.0368 66.5833L36.4785 20.7849L62.9202 66.5833H10.0368Z" fill="#5003CD" stroke="black"/>
<path d="M114.5 34.0054C114.5 43.1475 108.231 51.5131 97.9041 57.6204C87.5883 63.7212 73.3044 67.5107 57.5 67.5107C41.6956 67.5107 27.4117 63.7212 17.0959 57.6204C6.76891 51.5131 0.5 43.1475 0.5 34.0054C0.5 24.8633 6.76891 16.4977 17.0959 10.3903C27.4117 4.28954 41.6956 0.5 57.5 0.5C73.3044 0.5 87.5883 4.28954 97.9041 10.3903C108.231 16.4977 114.5 24.8633 114.5 34.0054Z" fill="#5003CD" stroke="black"/>
<path d="M34.2366 14.8387C34.2366 17.7842 36.6244 20.172 39.5699 20.172C42.5154 20.172 44.9032 17.7842 44.9032 14.8387C44.9032 11.8932 42.5154 9.50537 39.5699 9.50537C36.6244 9.50537 34.2366 11.8932 34.2366 14.8387ZM89.8817 25.4503C89.8817 28.3958 92.2695 30.7836 95.2151 30.7836C98.1606 30.7836 100.548 28.3958 100.548 25.4503C100.548 22.5048 98.1606 20.117 95.2151 20.117C92.2695 20.117 89.8817 22.5048 89.8817 25.4503ZM39.5699 14.8387C38.6828 15.3004 38.6832 15.301 38.6836 15.3018C38.6838 15.3022 38.6843 15.3031 38.6847 15.3039C38.6856 15.3056 38.6867 15.3079 38.6882 15.3106C38.691 15.316 38.6949 15.3234 38.6999 15.3328C38.7099 15.3515 38.7242 15.3781 38.7428 15.4122C38.7799 15.4804 38.8343 15.5786 38.906 15.704C39.0495 15.9549 39.2623 16.315 39.5456 16.7624C40.112 17.6567 40.9611 18.9017 42.1005 20.3206C44.3765 23.1548 47.8277 26.7034 52.5186 29.5283C57.2173 32.3579 63.1564 34.4584 70.3779 34.3853C77.5966 34.3121 86.0312 32.0677 95.7257 26.3101L94.7044 24.5905C85.255 30.2025 77.1619 32.3164 70.3576 32.3854C63.5561 32.4543 57.977 30.4807 53.5504 27.815C49.116 25.1446 45.8349 21.7767 43.6599 19.0683C42.5738 17.7158 41.7677 16.533 41.2353 15.6923C40.9692 15.2721 40.7718 14.9379 40.6423 14.7114C40.5775 14.5981 40.5298 14.5118 40.4989 14.4552C40.4835 14.4269 40.4723 14.406 40.4653 14.3928C40.4618 14.3863 40.4594 14.3816 40.458 14.379C40.4573 14.3777 40.4568 14.3768 40.4567 14.3765C40.4566 14.3763 40.4566 14.3765 40.4566 14.3764C40.4567 14.3767 40.4569 14.377 39.5699 14.8387Z" fill="white"/>
<circle cx="20.7097" cy="44.7097" r="3.70968" fill="white"/>
<circle cx="35.7097" cy="54.7097" r="3.70968" fill="white"/>
<circle cx="56.7097" cy="57.7097" r="3.70968" fill="white"/>
<circle cx="75.7097" cy="54.7097" r="3.70968" fill="white"/>
<circle cx="94.7097" cy="47.7097" r="3.70968" fill="white"/>
<path d="M16.6936 56.8818C24.1949 61.1454 38.9516 66.7742 48.8441 66.1559" stroke="#5003CD" stroke-width="2"/>
<path d="M30.914 66.7742H36.3549H40.3118H43.2796" stroke="#5003CD" stroke-width="2"/>
</svg>
